<svg width="18" height="18" viewBox="0 0 18 18" fill="none" xmlns="http://www.w3.org/2000/svg">
<path fill-rule="evenodd" clip-rule="evenodd" d="M12.5 16L11.5 14L10.5 16H6.5V14.9635C6.5 14.1447 3.29985 11.8634 3.29985 11.8634C2.8581 11.5352 2.5 10.8277 2.5 10.2704V6.66667C2.5 5.52126 3.3955 4.59259 4.5 4.59259V7.7037H5.5V2.86437C5.5 2.38681 5.873 2 6.3335 2C7.254 2 8 2.77363 8 3.72822V3.38289C8 2.90533 8.373 2.51852 8.8335 2.51852C9.754 2.51852 10.5 3.29215 10.5 4.24674V3.90141C10.5 3.42385 10.873 3.03704 11.3335 3C12.254 3.03704 13 3.81067 13 4.76526V4.41993C13 3.94237 13.373 3.55556 13.8335 3.55556C14.754 3.55556 15.5 4.32919 15.5 5.28378V10.0043C15.5 10.5542 15.2627 11.3812 14.9745 11.8573C14.9745 11.8573 13.5 14.1447 13.5 14.9635V16H12.5ZM8.5 8H9.5V12H8.5V8ZM10.5 8H11.5V12H10.5V8ZM12.5 8H13.5V12H12.5V8Z" fill="black"/>
</svg>
